<svg width="34" height="36" viewBox="0 0 34 36" fill="none" xmlns="http://www.w3.org/2000/svg">
<g filter="url(#filter0_d_1024_124123)">
<path d="M12 24L12 20L14 20L14 18L16 18L16 16L18 16L18 14L20 14L20 12L22 12L22 14L24 14L24 16L26 16L26 18L28 18L28 20L30 20L30 24L28 24L28 22L26 22L26 20L24 20L24 18L22 18L22 16L20 16L20 18L18 18L18 20L16 20L16 22L14 22L14 24L12 24Z" fill="#00FF29"/>
</g>
<defs>
<filter id="filter0_d_1024_124123" x="0" y="0" width="42" height="36" filterUnits="userSpaceOnUse" color-interpolation-filters="sRGB">
<feFlood flood-opacity="0" result="BackgroundImageFix"/>
<feColorMatrix in="SourceAlpha" type="matrix" values="0 0 0 0 0 0 0 0 0 0 0 0 0 0 0 0 0 0 127 0" result="hardAlpha"/>
<feOffset/>
<feGaussianBlur stdDeviation="6"/>
<feComposite in2="hardAlpha" operator="out"/>
<feColorMatrix type="matrix" values="0 0 0 0 0 0 0 0 0 1 0 0 0 0 0.16 0 0 0 0.8 0"/>
<feBlend mode="normal" in2="BackgroundImageFix" result="effect1_dropShadow_1024_124123"/>
<feBlend mode="normal" in="SourceGraphic" in2="effect1_dropShadow_1024_124123" result="shape"/>
</filter>
</defs>
</svg>
