<svg width="49" height="40" viewBox="0 0 49 40" fill="none" xmlns="http://www.w3.org/2000/svg">
<g filter="url(#filter0_d_1282_55363)">
<path d="M16.6875 18.625H19.8125V13.9375H16.6875V18.625ZM19.8125 20.1875H16.6875V26.4375H19.8125V20.1875ZM12 26.4375H13.5625V13.9375H12V12.375H21.375V13.9375H22.9375V18.625H21.375V20.1875H22.9375V26.4375H21.375V28H12V26.4375ZM29.1875 20.1875H33.875V18.625H29.1875V20.1875ZM27.625 17.0625H35.4375V18.625H37V21.75H29.1875V26.4375H33.875V24.875H37V26.4375H35.4375V28H27.625V26.4375H26.0625V18.625H27.625V17.0625Z" fill="white"/>
</g>
<defs>
<filter id="filter0_d_1282_55363" x="0" y="0.375" width="49" height="39.625" filterUnits="userSpaceOnUse" color-interpolation-filters="sRGB">
<feFlood flood-opacity="0" result="BackgroundImageFix"/>
<feColorMatrix in="SourceAlpha" type="matrix" values="0 0 0 0 0 0 0 0 0 0 0 0 0 0 0 0 0 0 127 0" result="hardAlpha"/>
<feOffset/>
<feGaussianBlur stdDeviation="6"/>
<feComposite in2="hardAlpha" operator="out"/>
<feColorMatrix type="matrix" values="0 0 0 0 1 0 0 0 0 1 0 0 0 0 1 0 0 0 1 0"/>
<feBlend mode="normal" in2="BackgroundImageFix" result="effect1_dropShadow_1282_55363"/>
<feBlend mode="normal" in="SourceGraphic" in2="effect1_dropShadow_1282_55363" result="shape"/>
</filter>
</defs>
</svg>
