<svg width="84" height="73" viewBox="0 0 84 73" fill="none" xmlns="http://www.w3.org/2000/svg">
<g filter="url(#filter0_d_1282_28605)">
<path fill-rule="evenodd" clip-rule="evenodd" d="M17 17H67V56H17V17ZM12 12H17H67H72V17V56V61H67H17H12V56V17V12ZM48.0176 26V31H46.0176V36H44.0176V41H42.0176V46H37.0004V41H39.0004V36H41.0004V31H43.0004V26H48.0176ZM56.0176 29V34H61.0176V39H56.0176V44H51.0004V39H56.0004V34H51.0004V29H56.0176ZM27.8555 38.8105V43.8105H32.8727V38.8105H27.8555ZM22.8555 33.8101V38.8101H27.8726L27.8726 33.8105H32.8727V28.8105H27.8555V33.8101H22.8555Z" fill="#00FF29"/>
</g>
<defs>
<filter id="filter0_d_1282_28605" x="0" y="0" width="84" height="73" filterUnits="userSpaceOnUse" color-interpolation-filters="sRGB">
<feFlood flood-opacity="0" result="BackgroundImageFix"/>
<feColorMatrix in="SourceAlpha" type="matrix" values="0 0 0 0 0 0 0 0 0 0 0 0 0 0 0 0 0 0 127 0" result="hardAlpha"/>
<feOffset/>
<feGaussianBlur stdDeviation="6"/>
<feComposite in2="hardAlpha" operator="out"/>
<feColorMatrix type="matrix" values="0 0 0 0 0 0 0 0 0 1 0 0 0 0 0.16 0 0 0 0.8 0"/>
<feBlend mode="normal" in2="BackgroundImageFix" result="effect1_dropShadow_1282_28605"/>
<feBlend mode="normal" in="SourceGraphic" in2="effect1_dropShadow_1282_28605" result="shape"/>
</filter>
</defs>
</svg>
