<svg width="47" height="46" viewBox="0 0 47 46" fill="none" xmlns="http://www.w3.org/2000/svg">
<g filter="url(#filter0_d_1282_55311)">
<path fill-rule="evenodd" clip-rule="evenodd" d="M31.3202 12.8799H33.1601H33.1602H35.0001V14.7198V14.7199V16.5597V16.5598V18.3997H34.0801V20.2397H32.2402V20.2401H34.0801V22.0801H33.1602V23.9199V23.92V25.7598V25.7599V27.5998H32.2402V29.4397V29.4398V31.2797H30.4002V31.2797H29.4803V31.2801H31.3202V33.1201H29.4802V32.2001H27.6403V31.2797H25.8004V29.44H24.8804V29.4398H23.9604V27.5999H23.0396V27.5998H22.1196V25.7598H23.0396V23.9199H24.8796V27.5998H24.8804V22.08H26.7203V20.2401H28.5603V18.3997H26.7204V19.3197H24.8804V18.3997H24.8796V20.2397H23.0396V21.1601H21.1997V23.0001H19.3598V24.84H17.5199H17.5198H15.6799V24.84H13.8399V23H12V21.16H12.92V20.2401H14.7599H14.76H15.6799V19.3201H17.5198V18.3997H19.3597H19.3598H20.2797V17.4797H22.1196V16.5597H23.9596V17.4797V18.3997H23.9604V16.5597H24.8804V15.6398H26.7203V14.7198H28.5603H28.5603H29.4802V13.7998H31.3202V12.8799ZM21.1996 20.2397V20.2401H19.3598V20.2397H21.1996ZM21.1997 19.3201H23.0396V19.3197H22.1197H22.1196H21.1997V19.3201ZM30.4003 27.5997H31.3202V27.5998H30.4003V27.5997ZM28.5603 30.3601V30.3601H27.6404V30.3601H28.5603Z" fill="white"/>
</g>
<defs>
<filter id="filter0_d_1282_55311" x="0" y="0.879883" width="47.0001" height="44.2402" filterUnits="userSpaceOnUse" color-interpolation-filters="sRGB">
<feFlood flood-opacity="0" result="BackgroundImageFix"/>
<feColorMatrix in="SourceAlpha" type="matrix" values="0 0 0 0 0 0 0 0 0 0 0 0 0 0 0 0 0 0 127 0" result="hardAlpha"/>
<feOffset/>
<feGaussianBlur stdDeviation="6"/>
<feComposite in2="hardAlpha" operator="out"/>
<feColorMatrix type="matrix" values="0 0 0 0 1 0 0 0 0 1 0 0 0 0 1 0 0 0 1 0"/>
<feBlend mode="normal" in2="BackgroundImageFix" result="effect1_dropShadow_1282_55311"/>
<feBlend mode="normal" in="SourceGraphic" in2="effect1_dropShadow_1282_55311" result="shape"/>
</filter>
</defs>
</svg>
