<svg width="21" height="19" viewBox="0 0 21 19" fill="none" xmlns="http://www.w3.org/2000/svg">
<path fill-rule="evenodd" clip-rule="evenodd" d="M17.7 0.474976H19.35H21V2.12498V3.77498V5.42498H20.175V7.07498V8.72498H19.35V10.375V12.025V13.675L18.525 13.675V15.325V16.975H17.7V18.625H16.05V17.8H14.4V16.975H12.75V15.325L11.925 15.325L11.1 15.325V13.675H10.275L9.45 13.675V12.025H10.275V10.375H11.925L11.925 8.72498H13.575V7.07498H15.225L15.225 5.42498H13.575V6.24998H11.925L11.925 7.07498H10.275V7.89998H8.625V9.54998H6.975V11.2H5.325H3.675H2.025L2.025 9.54998H0.375V7.89998H1.2V7.07498H2.85H3.675V6.24998H5.325V5.42498H6.975H7.8V4.59998H9.45V3.77498H11.1H11.925V2.94998H13.575V2.12498H15.225H16.05V1.29998H17.7L17.7 0.474976Z" fill="black"/>
</svg>
